<svg xmlns="http://www.w3.org/2000/svg" viewBox="0 0 512.001 512.001"><g fill="#f52424"><path d="M266.281 292.371a10.06 10.06 0 0 0-7.07-2.93c-2.63 0-5.21 1.07-7.07 2.93-1.859 1.86-2.93 4.44-2.93 7.07s1.07 5.21 2.93 7.07c1.86 1.86 4.44 2.93 7.07 2.93s5.21-1.07 7.07-2.93c1.859-1.86 2.93-4.44 2.93-7.07s-1.07-5.211-2.93-7.07zm-68.15 115.583c-3.905-3.905-10.235-3.905-14.143 0l-3.686 3.686-8.764-8.764c7.811-11.727 12.375-25.793 12.375-40.91 0-40.804-33.196-74-74-74s-74 33.196-74 74 33.196 74 74 74c18.479 0 35.384-6.824 48.365-18.064l7.881 7.881-3.687 3.686c-3.905 3.905-3.905 10.237.001 14.142 1.953 1.953 4.512 2.929 7.071 2.929s5.118-.977 7.071-2.929l21.516-21.515c3.905-3.905 3.905-10.236 0-14.142zm-41.125-19.609l-19.866-19.866c.5-2.091.773-4.27.773-6.512 0-15.439-12.561-28-28-28s-28 12.561-28 28 12.561 28 28 28a27.847 27.847 0 0 0 15.643-4.787l18.549 18.549c-9.319 7.643-21.228 12.238-34.192 12.238-29.775 0-54-24.224-54-54s24.225-54 54-54 54 24.224 54 54a53.654 53.654 0 0 1-6.907 26.378zm-39.093-26.378c0 4.411-3.589 8-8 8s-8-3.589-8-8 3.589-8 8-8 8 3.589 8 8z"/><path d="M502.001.001c-5.522 0-10 4.477-10 10v40.342l-34 34V52.431l1.214-1.214c11.695-11.697 11.695-30.729 0-42.426-11.697-11.697-30.73-11.697-42.428 0l-58.081 58.081c-11.696 11.697-11.696 30.729 0 42.427a29.862 29.862 0 0 0 18.336 8.635L390 130.892V143.5h-35.954c-5.522 0-10 4.477-10 10s4.478 10 10 10H390v70.023l-59.256 75.261-27.696-7.634a9.999 9.999 0 0 0-12.298 6.983c-1.468 5.324 1.659 10.83 6.983 12.298l102.184 28.164c.152.052.307.101.462.146a51.953 51.953 0 0 1 9.405 3.746c.154.083.311.162.471.238 16.993 8.972 28.175 26.888 28.175 46.61 0 29.04-23.625 52.666-52.665 52.666-.171 0-.339-.008-.508-.014l-.642-.019-.215-.002H110c-24.04 0-46.641-9.361-63.639-26.36C29.362 408.608 20 386.007 20 361.967c0-24.04 9.362-46.641 26.361-63.64 24.01-24.01 59.016-32.445 91.362-22.006.137.044.274.085.413.124l75.637 20.847.022-.079c.682.147 1.38.229 2.082.229 2.63 0 5.21-1.07 7.07-2.93 1.859-1.86 2.93-4.44 2.93-7.07s-1.07-5.21-2.93-7.07a10.066 10.066 0 0 0-5.331-2.766l-73.963-20.386c-12.405-3.976-25.127-5.678-37.652-5.239v-25.98h14c16.542 0 30-13.458 30-30s-13.458-30-30-30h-80c-16.542 0-30 13.458-30 30s13.458 30 30 30h14v41.254a110.768 110.768 0 0 0-21.782 16.93C11.442 304.96 0 332.585 0 361.967c0 29.382 11.442 57.006 32.219 77.782a110.685 110.685 0 0 0 21.526 16.794c-.118.181-.239.358-.347.548l-19.677 34.91h-23.72c-5.522 0-10 4.477-10 10s4.478 10 10 10h150.987c5.522 0 10-4.477 10-10s-4.478-10-10-10h-19.654v-20.035h175.322v20.035h-19.654c-5.522 0-10 4.477-10 10s4.478 10 10 10h150.987c5.522 0 10-4.477 10-10s-4.478-10-10-10h-23.72l-13.727-24.354c27.905-10.153 47.889-36.94 47.889-68.311 0-24.273-12.284-46.556-31.579-59.875l30.49-79.762c.436-1.14.659-2.35.659-3.571v-143.5l51.071-51.071a10.001 10.001 0 0 0 2.929-7.071V10.001c0-5.522-4.478-10-10-10zm-416 254.552a109.33 109.33 0 0 0-12 3.403V226h12v28.553zm-46-48.552c-5.514 0-10-4.485-10-10 0-5.514 4.486-10 10-10h80c5.514 0 10 4.486 10 10s-4.486 10-10 10h-80zm81.333 286H56.68l14.143-25.09c.33-.585.592-1.19.793-1.805 12.119 4.503 25.07 6.86 38.384 6.86h11.334v20.035zm215.323 0v-20.035h47.607l.312.01c.396.013.791.025 1.19.025 1.41 0 2.808-.05 4.198-.13l11.347 20.13h-64.654zm101.344-237.718l-29.119 76.175a72.483 72.483 0 0 0-2.34-.751 9.743 9.743 0 0 0-.732-.232l-54.149-14.924 56.197-71.375a9.996 9.996 0 0 0 2.144-6.186v-73.489h3.526c5.522 0 10-4.477 10-10s-4.478-10-10-10h-3.526v-16.75c0-2.652-1.054-5.196-2.929-7.071l-8.277-8.277a30.31 30.31 0 0 0 2.337-2.104l36.868-36.868v31.911l-10.58 10.58c-3.905 3.905-3.905 10.237 0 14.143a9.968 9.968 0 0 0 10.58 2.286v122.932zm7.071-217.209L386.99 95.157c-3.898 3.901-10.243 3.899-14.142 0s-3.899-10.242.001-14.142l58.081-58.081a9.968 9.968 0 0 1 7.071-2.925c2.56 0 5.122.975 7.071 2.924 3.898 3.899 3.898 10.244 0 14.141z"/><path d="M394.907 368.133c-5.311-1.53-10.85 1.532-12.379 6.839-1.53 5.307 1.531 10.849 6.838 12.378 5.648 1.629 9.594 6.875 9.594 12.759 0 7.324-5.958 13.282-13.281 13.282h-43.644c-5.522 0-10 4.477-10 10s4.478 10 10 10h43.644c18.352 0 33.281-14.93 33.281-33.282 0-14.743-9.891-27.893-24.053-31.976zM310.57 416.32c-1.859-1.86-4.439-2.93-7.069-2.93s-5.21 1.07-7.07 2.93a10.076 10.076 0 0 0-2.93 7.07c0 2.64 1.069 5.21 2.93 7.07 1.86 1.86 4.44 2.93 7.07 2.93s5.21-1.07 7.069-2.93c1.86-1.86 2.931-4.44 2.931-7.07s-1.07-5.209-2.931-7.07z"/></g></svg>