<svg xmlns="http://www.w3.org/2000/svg" viewBox="0 0 512 512"><g fill="#f52424"><path d="M154.518 145.733h-48c-5.523 0-10 4.477-10 10v56c0 5.523 4.477 10 10 10h48c5.523 0 10-4.477 10-10v-56c0-5.523-4.477-10-10-10zm-10 56h-28v-36h28v36zm10 56h-48c-5.523 0-10 4.477-10 10v56c0 5.523 4.477 10 10 10h48c5.523 0 10-4.477 10-10v-56c0-5.523-4.477-10-10-10zm-10 56h-28v-36h28v36zm10 56h-48c-5.523 0-10 4.477-10 10v56c0 5.523 4.477 10 10 10h48c5.523 0 10-4.477 10-10v-56c0-5.523-4.477-10-10-10zm-10 56h-28v-36h28v36zm270.979-56h-48c-5.523 0-10 4.477-10 10v56c0 5.523 4.477 10 10 10h48c5.523 0 10-4.477 10-10v-56c0-5.523-4.477-10-10-10zm-10 56h-28v-36h28v36zm-163.986-280h-48c-5.523 0-10 4.477-10 10v56c0 5.523 4.477 10 10 10h48c5.523 0 10-4.477 10-10v-56c0-5.523-4.477-10-10-10zm-10 56h-28v-36h28v36zm96.992-56h-48c-5.523 0-10 4.477-10 10v56c0 5.523 4.477 10 10 10h48c5.523 0 10-4.477 10-10v-56c0-5.523-4.477-10-10-10zm-10 56h-28v-36h28v36zm-76.992 56h-48c-5.523 0-10 4.477-10 10v56c0 5.523 4.477 10 10 10h48c5.523 0 10-4.477 10-10v-56c0-5.523-4.477-10-10-10zm-10 56h-28v-36h28v36zm96.992-56h-48c-5.523 0-10 4.477-10 10v56c0 5.523 4.477 10 10 10h48c5.523 0 10-4.477 10-10v-56c0-5.523-4.477-10-10-10zm-10 56h-28v-36h28v36zm96.994-168h-48c-5.523 0-10 4.477-10 10v56c0 5.523 4.477 10 10 10h48c5.523 0 10-4.477 10-10v-56c0-5.523-4.477-10-10-10zm-10 56h-28v-36h28v36zm10 56h-48c-5.523 0-10 4.477-10 10v56c0 5.523 4.477 10 10 10h48c5.523 0 10-4.477 10-10v-56c0-5.523-4.477-10-10-10zm-10 56h-28v-36h28v36z"/><path d="M502 492h-37.511V104.063c0-5.523-4.477-10-10-10h-55.502V58c0-5.523-4.477-10-10-10H334V10c0-5.523-4.477-10-10-10H188c-5.523 0-10 4.477-10 10v38h-54.986c-5.523 0-10 4.477-10 10v36.063H57.511c-5.523 0-10 4.477-10 10V492H10c-5.523 0-10 4.477-10 10s4.477 10 10 10h492c5.523 0 10-4.477 10-10s-4.477-10-10-10zM198 20h116v28H198V20zm100 472h-69.191L298 422.809V492zm0-97.413c-.223.187-.443.38-.653.59L214 478.524v-42.382L278.143 372H298v22.587zm-84 13.27V372h35.857L214 407.857zM444.489 492H318V372h3.5c5.523 0 10-4.477 10-10s-4.477-10-10-10h-131c-5.523 0-10 4.477-10 10s4.477 10 10 10h3.5v120H67.511V114.063h111.007c5.523 0 10-4.477 10-10s-4.477-10-10-10h-45.504V68h245.973v26.063H257.524c-5.523 0-10 4.477-10 10s4.477 10 10 10h186.965V492z"/><path d="M224.58 96.99c-1.86-1.86-4.44-2.93-7.07-2.93s-5.21 1.07-7.07 2.93-2.93 4.44-2.93 7.07 1.07 5.21 2.93 7.07c1.86 1.87 4.44 2.93 7.07 2.93s5.21-1.06 7.07-2.93c1.86-1.86 2.93-4.44 2.93-7.07s-1.07-5.21-2.93-7.07z"/></g></svg>