<svg xmlns="http://www.w3.org/2000/svg" viewBox="0 0 512 512"><g fill="#f52424"><path d="M405.406 202.853c-6.017-7.553-6.025-18.111-.021-25.675l7.874-9.92c3.434-4.326 2.71-10.615-1.616-14.048-4.325-3.433-10.615-2.711-14.048 1.616l-7.875 9.92c-11.824 14.897-11.806 35.692.042 50.568l7.771 9.757a9.983 9.983 0 0 0 7.828 3.771 9.96 9.96 0 0 0 6.224-2.178c4.32-3.441 5.033-9.731 1.592-14.051l-7.771-9.76zm78.859-29.229l-7.771-9.757c-6.017-7.554-6.026-18.112-.022-25.675l7.874-9.92c3.434-4.326 2.71-10.615-1.615-14.049-4.325-3.432-10.614-2.71-14.049 1.615l-7.874 9.92c-11.824 14.897-11.806 35.692.043 50.569l7.771 9.758c6.017 7.553 6.025 18.112.022 25.676-3.434 4.326-2.71 10.615 1.616 14.048a9.96 9.96 0 0 0 6.21 2.168 9.98 9.98 0 0 0 7.839-3.784c11.823-14.896 11.805-35.691-.044-50.569zM51.15 212.612l-7.772-9.759c-6.017-7.553-6.025-18.111-.021-25.675l7.875-9.92c3.434-4.326 2.71-10.615-1.616-14.048-4.326-3.434-10.616-2.71-14.048 1.616l-7.874 9.92c-11.824 14.897-11.807 35.691.042 50.568l7.771 9.758c6.017 7.554 6.026 18.112.022 25.675-3.434 4.326-2.71 10.615 1.616 14.048a9.952 9.952 0 0 0 6.21 2.168 9.982 9.982 0 0 0 7.839-3.783c11.822-14.898 11.804-35.692-.044-50.568zm69.557-98.386c-4.324-3.437-10.613-2.717-14.05 1.605l-.288.362c-3.436 4.325-2.717 10.614 1.606 14.051a9.961 9.961 0 0 0 6.216 2.172 9.976 9.976 0 0 0 7.833-3.778l.288-.362c3.437-4.324 2.718-10.613-1.605-14.05zm1.529 59.399l-7.771-9.757a20.491 20.491 0 0 1-3.802-7.549c-1.417-5.338-6.891-8.518-12.229-7.101-5.338 1.417-8.516 6.893-7.101 12.229a40.357 40.357 0 0 0 7.489 14.88l7.771 9.757c6.017 7.555 6.026 18.112.022 25.675-3.434 4.326-2.71 10.615 1.615 14.049a9.96 9.96 0 0 0 6.211 2.168 9.982 9.982 0 0 0 7.839-3.783c11.823-14.896 11.806-35.691-.044-50.568z"/><path d="M474.791 292.017l-95.691-.001c-3.645-24.344-20.388-45.324-43.952-53.935l-44.423-16.234c-.701-.261-.957-.648-.977-.681v-18.064l17.887-10.256c.183-.104.361-.214.537-.33 9.458-6.247 15.666-17.297 16.603-29.56.02-.253.029-.508.029-.762v-22.588a27.455 27.455 0 0 0 9.141-6.062l2.871-2.871c15.389-15.389 15.389-40.429 0-55.818l-43.619-43.619C289.334 17.57 279.129 6.843 265.55 2.35c-16.558-5.479-34.503-1.221-46.834 11.11l-39.732 39.733c-11.671 11.67-18.099 27.187-18.099 43.692s6.428 32.022 18.098 43.692l7.859 7.859v13.757c0 .254.01.509.029.762.941 12.309 7.109 23.359 16.499 29.56.179.118.361.23.547.337l17.967 10.271.006 17.992c-.026.082-.283.469-.922.708l-44.475 16.256c-23.562 8.612-40.304 29.591-43.949 53.934l-95.724-.001a9.997 9.997 0 0 0-9.999 10V502c0 5.522 4.477 9.999 9.999 9.999h437.971c5.523 0 9.999-4.478 9.999-9.999V302.017c0-5.522-4.477-10-9.999-10zM291.976 58.301l30.697 30.697c7.592 7.591 7.592 19.944.001 27.535l-2.871 2.871c-2.972 2.973-7.807 2.973-10.78 0l-36.507-36.507 9.812-9.812a42.755 42.755 0 0 0 9.648-14.784zm-95.067 71.921l-3.786-3.787c-7.893-7.893-12.24-18.388-12.24-29.551-.001-11.161 4.347-21.656 12.24-29.549l39.733-39.733c4.948-4.949 11.499-7.591 18.23-7.591 2.729 0 5.487.435 8.18 1.326 7.534 2.493 13.126 8.591 14.958 16.313 1.832 7.721-.425 15.682-6.037 21.294l-71.278 71.278zm17.25 45.45c-4.005-2.769-6.782-8.041-7.32-13.894v-13.204l51.536-51.536 36.506 36.507a27.456 27.456 0 0 0 9.923 6.356v21.876c-.536 5.813-3.355 11.087-7.43 13.899l-35.069 20.109a9.537 9.537 0 0 0-.537.33c-3.78 2.497-8.115 2.496-11.895 0-.179-.118-.361-.23-.548-.337l-35.166-20.106zM99.815 492.001H46.819v-33.998h52.996v33.998zm0-53.996H46.819v-65.996h52.996v65.996zm0-85.994H46.819v-39.997h52.996v39.997zm72.996 139.99h-52.996v-33.998h52.996v33.998zm0-53.996h-52.996v-65.996h52.996v65.996zm0-85.995h-52.996v-39.997l52.996.001v39.996zm72.995 139.991h-52.997v-33.998h52.997v33.998zm0-53.996h-52.997v-65.996h52.997v65.996zm0-85.995h-52.997v-39.996h52.997v39.996zm72.995 139.991h-52.996v-33.998h52.996v33.998zm0-53.996h-52.996v-65.996h52.996v65.996zm0-85.995h-52.996v-39.996l52.996.001v39.995zm9.998-75.661c-5.523 0-9.999 4.478-9.999 9.999v5.669l-125.992-.001v-5.668c0-5.522-4.477-9.999-9.999-9.999-5.523 0-9.999 4.478-9.999 9.999v5.668h-19.953c3.416-15.928 14.817-29.42 30.501-35.153l44.538-16.279c8.496-3.171 13.985-10.792 13.985-19.418v-6.612c4.423 2.276 9.178 3.433 13.941 3.433 4.756 0 9.507-1.155 13.926-3.426v6.605c0 8.627 5.491 16.25 14.049 19.442l44.485 16.257c15.686 5.732 27.087 19.224 30.502 35.152h-19.986v-5.669c.001-5.521-4.476-9.999-9.999-9.999zm62.997 215.652H338.8v-33.998h52.997v33.998zm0-53.996H338.8v-65.996h52.997v65.996zm0-85.994H338.8v-39.995h52.997v39.995zm72.995 139.99h-52.996v-33.998h52.996v33.998zm0-53.996h-52.996v-65.996h52.996v65.996zm0-85.995h-52.996v-39.994h52.996v39.994z"/><path d="M445.362 398.027c-1.86-1.859-4.44-2.93-7.07-2.93s-5.21 1.07-7.07 2.93-2.93 4.44-2.93 7.07 1.07 5.21 2.93 7.07c1.86 1.859 4.44 2.93 7.07 2.93s5.21-1.07 7.07-2.93 2.93-4.44 2.93-7.07-1.07-5.21-2.93-7.07zm-145.99 0c-1.86-1.859-4.44-2.93-7.07-2.93s-5.21 1.07-7.07 2.93-2.93 4.44-2.93 7.07 1.07 5.21 2.93 7.07c1.86 1.859 4.44 2.93 7.07 2.93s5.21-1.07 7.07-2.93 2.93-4.44 2.93-7.07-1.07-5.21-2.93-7.07zm-145.99 0c-1.86-1.859-4.44-2.93-7.07-2.93s-5.21 1.07-7.07 2.93c-1.86 1.86-2.93 4.44-2.93 7.07s1.07 5.21 2.93 7.07c1.86 1.859 4.44 2.93 7.07 2.93s5.21-1.07 7.07-2.93 2.93-4.44 2.93-7.07-1.071-5.21-2.93-7.07zm258.516-149.255c-4.324-3.437-10.613-2.717-14.05 1.605l-.288.362c-3.436 4.325-2.717 10.615 1.606 14.051a9.961 9.961 0 0 0 6.216 2.172 9.976 9.976 0 0 0 7.833-3.778l.288-.362c3.436-4.323 2.717-10.613-1.605-14.05z"/></g></svg>